REM MD5 527f58c72c1ee0f01705032cf077e7cb
FILE "Rollcage (Europe) (En,Fr,De,Es,It) (Demo).bin" BINARY
  TRACK 01 MODE2/2352
    INDEX 01 00:00:00
  TRACK 02 AUDIO
    INDEX 00 03:09:14
    INDEX 01 03:11:14
  TRACK 03 AUDIO
    INDEX 00 07:21:61
    INDEX 01 07:23:61
REM LEADOUT 11:06:44
